<svg width="77" height="77" viewBox="0 0 77 77" fill="none" xmlns="http://www.w3.org/2000/svg">
<path d="M34.6086 58.3466L34.6104 58.3484C36.4243 60.1623 39.5 58.868 39.5 56.3218V46.3306H56.5081C58.0849 46.3306 59.371 45.0446 59.371 43.4677V33.5323C59.371 31.9554 58.0849 30.6694 56.5081 30.6694H39.5V20.6627C39.5 18.122 36.4096 16.8155 34.6074 18.6391C34.6068 18.6396 34.6063 18.6402 34.6058 18.6407L16.8663 36.4733C16.866 36.4736 16.8657 36.4739 16.8655 36.4742C15.7464 37.5941 15.7464 39.3904 16.8655 40.5103C16.8657 40.5106 16.866 40.5109 16.8663 40.5111L34.6086 58.3466ZM38.5 76C17.7841 76 1 59.2159 1 38.5C1 17.7841 17.7841 1 38.5 1C59.2159 1 76 17.7841 76 38.5C76 59.2159 59.2159 76 38.5 76Z" fill="#FFA69E" stroke="#A76D68" stroke-width="2"/>
</svg>
