<svg width="77" height="77" viewBox="0 0 77 77" fill="none" xmlns="http://www.w3.org/2000/svg">
<path d="M42.3914 18.6534L42.3896 18.6516C40.5757 16.8377 37.5 18.132 37.5 20.6782L37.5 30.6694L20.4919 30.6693C18.9151 30.6693 17.629 31.9554 17.629 33.5323L17.629 43.4677C17.629 45.0446 18.9151 46.3306 20.4919 46.3306L37.5 46.3306L37.5 56.3373C37.5 58.8781 40.5907 60.1846 42.3929 58.3606C42.3933 58.3602 42.3938 58.3597 42.3942 58.3593L60.1337 40.5267C60.134 40.5264 60.1343 40.5261 60.1345 40.5258C61.2536 39.4059 61.2536 37.6096 60.1345 36.4897C60.1343 36.4894 60.134 36.4891 60.1337 36.4889L42.3914 18.6534ZM38.5 0.999997C59.2159 0.999998 76 17.7841 76 38.5C76 59.2159 59.2159 76 38.5 76C17.7841 76 1 59.2159 1 38.5C1.00001 17.7841 17.7841 0.999995 38.5 0.999997Z" fill="#FFA69E" stroke="#A76D68" stroke-width="2"/>
</svg>
