<svg width="73" height="76" viewBox="0 0 73 76" fill="none" xmlns="http://www.w3.org/2000/svg">
<path d="M1.43124 28.0011L1.4273 27.9988C1.10104 27.813 0.921711 27.4125 1.03219 26.9855C2.69428 21.6683 5.52075 16.8715 9.21409 12.8925L9.21413 12.8925L9.22157 12.8843C9.48301 12.5964 9.90422 12.5262 10.2599 12.7277C10.2605 12.7281 10.2611 12.7284 10.2617 12.7287L16.8071 16.4958L17.4162 16.8463L17.9523 16.3921C20.6277 14.1257 23.6892 12.3633 26.9877 11.1934L27.6535 10.9573L27.6535 10.2509L27.6535 2.71222C27.6535 2.32248 27.9273 1.98013 28.3111 1.89667L28.3161 1.89557C33.5421 0.731495 39.1743 0.671811 44.6699 1.8956L44.6748 1.89666C45.0587 1.98013 45.3325 2.32248 45.3325 2.71222L45.3325 10.2509L45.3325 10.9613L46.0033 11.1952C49.3138 12.3492 52.3718 14.1098 55.0291 16.3883L55.5659 16.8486L56.1788 16.4958L62.7282 12.7265L62.732 12.7243C63.0542 12.537 63.4965 12.5972 63.7717 12.8923C67.4685 16.8903 70.2963 21.6917 71.9576 26.9979C72.0728 27.3943 71.907 27.7939 71.574 27.9835L71.5701 27.9857L65.0207 31.7551L64.4069 32.1083L64.5364 32.8046C65.175 36.2386 65.175 39.7614 64.5364 43.1954L64.4069 43.8916L65.0207 44.2449L71.5701 48.0143L71.574 48.0165C71.9221 48.2147 72.0789 48.6181 71.9609 48.9915L71.9599 48.9949C70.2986 54.3199 67.4697 59.1236 63.7719 63.1075L63.7718 63.1075L63.7644 63.1156C63.503 63.4036 63.0819 63.4738 62.7263 63.2724C62.7256 63.272 62.725 63.2716 62.7243 63.2713L56.1951 59.5047L55.5857 59.1532L55.049 59.6079C52.3736 61.8743 49.3122 63.6367 46.0136 64.8066L45.3479 65.0427L45.3479 65.7491L45.3479 73.2878C45.3479 73.6775 45.0741 74.0199 44.6902 74.1033L44.6853 74.1044C39.4592 75.2685 33.827 75.3282 28.3314 74.1044L28.3265 74.1033C27.9426 74.0199 27.6689 73.6775 27.6689 73.2878L27.6689 65.7644L27.6689 65.054L26.998 64.8201C23.6875 63.6661 20.6295 61.9055 17.9723 59.6271L17.4354 59.1668L16.8225 59.5195L10.2731 63.2888L10.2693 63.291C9.9471 63.4783 9.50484 63.4181 9.22963 63.123C5.53281 59.125 2.70504 54.3235 1.04367 49.0173C0.928568 48.6209 1.09432 48.2215 1.4273 48.0318L1.43123 48.0296L7.98065 44.2602L8.59447 43.907L8.46498 43.2107C7.82636 39.7767 7.82636 36.2539 8.46498 32.8199L8.59447 32.1237L7.98065 31.7704L1.43124 28.0011ZM49.8077 38.0153C49.8077 30.7026 43.8375 24.7573 36.5084 24.7573C29.1792 24.7573 23.209 30.7026 23.209 38.0153C23.209 45.328 29.1792 51.2733 36.5084 51.2733C43.8375 51.2733 49.8077 45.328 49.8077 38.0153Z" fill="#FFA69E" stroke="#A76D68" stroke-width="2"/>
</svg>
