<svg width="101" height="96" viewBox="0 0 101 96" fill="none" xmlns="http://www.w3.org/2000/svg">
<path d="M67.5293 33.1098L64.9341 32.7341L63.7676 30.3854L51.4409 5.56538C51.3237 5.32955 51.1896 5.21228 51.0668 5.14025C50.9253 5.05728 50.7328 4.99928 50.5092 5.00001C50.0636 5.00146 49.7396 5.20605 49.5568 5.56987C49.5564 5.57083 49.5559 5.57179 49.5554 5.57274L37.2324 30.3854L36.0659 32.7341L33.4707 33.1098L5.88922 37.1031L5.8856 37.1036C5.00737 37.2301 4.74133 38.2496 5.30692 38.7964L5.30833 38.7978L25.2629 58.1079L27.1636 59.9472L26.7126 62.5534L21.9936 89.8279C21.9498 90.0824 21.989 90.2442 22.0401 90.3607C22.1002 90.4978 22.2143 90.6495 22.3913 90.7759C22.7473 91.0302 23.1386 91.0594 23.5113 90.8648L23.5121 90.8644L48.1863 77.9847L50.5 76.777L52.8137 77.9847L77.4879 90.8644L77.4957 90.8685L77.5035 90.8726C77.8695 91.0653 78.2514 91.0387 78.6051 90.7856C78.7819 90.659 78.8975 90.5059 78.9589 90.3658C79.0111 90.2464 79.05 90.0829 79.0067 89.8296C79.0066 89.829 79.0065 89.8284 79.0064 89.8279L74.2874 62.5534L73.8364 59.9472L75.7371 58.1079L95.6917 38.7978L95.6931 38.7964C96.2587 38.2495 95.9926 37.2301 95.1144 37.1036L95.1108 37.1031L67.5293 33.1098Z" fill="#FAF3DD" stroke="#F9D976" stroke-width="10"/>
</svg>
